<svg width="25" height="28" viewBox="0 0 25 28" fill="none" xmlns="http://www.w3.org/2000/svg"><g clip-path="url(#a)"><path d="M1.563 2.31C-.403 4.493 0 6.813 0 13.859c0 5.851-.954 11.717 4.04 13.098 1.559.43 15.376.43 16.933-.002 2.08-.574 3.77-2.378 4.002-5.525.032-.439.032-14.695-.001-15.144-.246-3.351-2.174-5.283-4.715-5.674-.582-.09-.699-.117-3.686-.122-10.597.005-12.92-.5-15.01 1.82z" fill="url(#b)"/><path d="M12.498 3.989c-3.782 0-7.374-.36-8.746 3.407-.567 1.556-.484 3.577-.484 6.47 0 2.54-.076 4.925.484 6.47 1.369 3.769 4.99 3.408 8.744 3.408 3.622 0 7.356.403 8.745-3.409.567-1.571.484-3.562.484-6.469 0-3.859.199-6.35-1.55-8.22-1.77-1.895-4.166-1.657-7.681-1.657h.004zm-.827 1.78c7.89-.014 8.894-.952 8.34 12.085-.197 4.611-3.479 4.105-7.512 4.105-7.354 0-7.566-.225-7.566-8.097 0-7.964.584-8.089 6.738-8.096v.003zm5.754 1.64c-.611 0-1.107.53-1.107 1.184 0 .654.495 1.185 1.107 1.185.611 0 1.107-.53 1.107-1.185 0-.654-.495-1.185-1.107-1.185zm-4.927 1.385c-2.618 0-4.74 2.271-4.74 5.072s2.122 5.072 4.74 5.072c2.618 0 4.739-2.27 4.739-5.072 0-2.8-2.121-5.072-4.74-5.072zm0 1.78c4.068 0 4.073 6.585 0 6.585-4.067 0-4.073-6.585 0-6.585z" fill="#fff"/></g><defs><linearGradient id="b" x1="1.61" y1="25.531" x2="26.177" y2="5.66" gradientUnits="userSpaceOnUse"><stop stop-color="#8E7F42"/><stop offset=".5" stop-color="#FF543E"/><stop offset="1" stop-color="#C837AB"/></linearGradient><clipPath id="a"><path fill="#fff" transform="translate(0 .49)" d="M0 0h25v26.75H0z"/></clipPath></defs></svg>