<svg width="25" height="28" viewBox="0 0 25 28" fill="none" xmlns="http://www.w3.org/2000/svg"><g clip-path="url(#a)"><path d="M12.5 27.31c6.904 0 12.5-5.988 12.5-13.375C25 6.55 19.404.56 12.5.56 5.597.56 0 6.55 0 13.935 0 21.322 5.597 27.31 12.5 27.31z" fill="#CB2027"/><path d="M13.509 18.47c-.945-.078-1.342-.58-2.083-1.06-.408 2.286-.905 4.478-2.38 5.623-.455-3.456.668-6.052 1.19-8.807-.89-1.602.107-4.827 1.983-4.033 2.31.978-1.999 5.958.893 6.58 3.02.65 4.252-5.606 2.38-7.64-2.706-2.938-7.875-.067-7.24 4.138.155 1.028 1.148 1.34.397 2.758-1.732-.41-2.248-1.871-2.182-3.82.108-3.188 2.678-5.42 5.257-5.73 3.26-.39 6.321 1.281 6.744 4.564.475 3.704-1.472 7.715-4.959 7.427z" fill="#F1F2F2"/></g><defs><clipPath id="a"><path fill="#fff" transform="translate(0 .56)" d="M0 0h25v26.75H0z"/></clipPath></defs></svg>