<svg width="25" height="28" viewBox="0 0 25 28" fill="none" xmlns="http://www.w3.org/2000/svg"><g clip-path="url(#a)"><path d="M12.5 27.31c6.904 0 12.5-5.988 12.5-13.375S19.404.56 12.5.56 0 6.548 0 13.935 5.596 27.31 12.5 27.31z" fill="#4D76A1"/><path fill-rule="evenodd" clip-rule="evenodd" d="M12.028 19.801h.98s.297-.035.449-.21c.139-.16.134-.46.134-.46s-.019-1.409.592-1.616c.603-.205 1.376 1.361 2.196 1.963.62.456 1.09.356 1.09.356l2.193-.033s1.146-.075.603-1.04c-.045-.079-.317-.714-1.63-2.018-1.375-1.365-1.19-1.144.465-3.505 1.008-1.438 1.411-2.316 1.285-2.692-.12-.358-.861-.263-.861-.263l-2.468.016s-.183-.027-.319.06c-.132.085-.218.284-.218.284s-.39 1.112-.911 2.059c-1.1 1.996-1.539 2.102-1.718 1.978-.418-.29-.314-1.161-.314-1.78 0-1.936.274-2.742-.534-2.951-.268-.07-.466-.115-1.152-.123-.88-.01-1.626.003-2.048.224-.28.147-.497.475-.365.494.163.024.532.107.728.392.253.368.244 1.195.244 1.195s.146 2.278-.339 2.561c-.333.194-.789-.202-1.769-2.014-.502-.928-.88-1.953-.88-1.953s-.074-.192-.204-.295c-.158-.124-.38-.163-.38-.163l-2.345.016s-.352.01-.481.174c-.115.146-.01.447-.01.447s1.837 4.597 3.916 6.913c1.906 2.124 4.07 1.984 4.07 1.984z" fill="#fff"/></g><defs><clipPath id="a"><path fill="#fff" transform="translate(0 .56)" d="M0 0h25v26.75H0z"/></clipPath></defs></svg>